<svg width="800" height="800" viewBox="0 0 800 800" fill="none" xmlns="http://www.w3.org/2000/svg">
<path d="M386.542 400.078H201.265M196.013 424.392L165.403 515.934C148.637 566.07 140.255 591.137 146.271 606.573C151.494 619.981 162.715 630.143 176.56 634.014C192.502 638.467 216.582 627.618 264.742 605.924L573.49 466.829C620.499 445.65 644.003 435.064 651.266 420.354C657.578 407.574 657.578 392.578 651.266 379.798C644.003 365.091 620.499 354.502 573.49 333.324L264.209 193.992C216.195 172.361 192.188 161.545 176.261 165.982C162.429 169.835 151.21 179.972 145.968 193.353C139.931 208.761 148.224 233.775 164.811 283.802L196.072 378.096C198.921 386.688 200.345 390.986 200.908 395.378C201.407 399.279 201.401 403.225 200.893 407.123C200.319 411.515 198.884 415.806 196.013 424.392Z" stroke="white" stroke-width="66.6667" stroke-linecap="round" stroke-linejoin="round"/>
</svg>
