<svg width="800" height="800" viewBox="0 0 800 800" fill="none" xmlns="http://www.w3.org/2000/svg">
<path d="M726.982 409.731C713.95 256.161 558.571 147 404.02 147C200.602 147 214.086 213.591 191.411 215.478C135.873 219.963 60 284.874 60 360.655C60 436.555 91.4792 510.553 183.035 510.553C177.462 541.994 188.566 592.928 287.452 592.928C334.818 592.928 401.474 592.928 424.447 592.928C424.447 667.794 537.382 650.224 577.046 650.224C616.811 650.224 623.288 607.641 616.037 596.587C739.987 595.644 757.388 466.212 726.982 409.731ZM547.57 211.793H582.695C590.244 211.793 596.386 217.947 596.386 225.56C596.386 233.343 590.244 239.536 582.695 239.536H547.57C539.788 239.536 533.623 233.343 533.623 225.56C533.623 217.947 539.788 211.793 547.57 211.793ZM445.79 259.897C448.259 259.897 450.52 259.897 452.628 259.897C459.945 259.897 461.845 258.682 461.845 258.682C462.531 257.35 462.531 252.218 462.531 248.973V208.459C462.531 200.883 468.58 194.625 476.298 194.625C483.86 194.625 490.092 200.883 490.092 208.459V248.754C490.234 252.218 490.234 256.071 489.691 259.897H535.482C536.89 259.897 538.417 259.832 540.251 259.832C551.37 259.367 568.202 258.876 580.586 270.756C588.627 278.526 592.842 290.16 592.842 305.208V353.946C592.842 358.522 592.675 368.062 595.208 370.687C596.384 371.785 599.189 371.863 600.199 371.863H671.574C679.072 371.863 685.224 378.172 685.224 385.761C685.224 393.53 679.071 399.71 671.574 399.71H600.199C587.503 399.71 579.722 394.592 575.533 390.273C564.79 379.349 564.828 363.267 565.126 353.713V351.645V305.208C565.126 298.202 563.728 292.978 561.323 290.626C557.535 286.967 548.5 287.278 541.184 287.601C539.101 287.601 537.24 287.755 535.482 287.755H444.638C444.638 287.755 444.495 287.601 444.199 287.601C432.68 287.601 416.25 287.601 411.852 291.93C411.581 292.253 410.547 293.068 410.547 296.571V372.223C410.547 379.942 404.251 386.186 396.714 386.186C389.06 386.186 382.842 379.942 382.842 372.223V296.571C382.842 284.251 388.117 276.532 392.33 272.267C405.235 259.6 426.929 259.665 445.79 259.897ZM324.528 182.098C324.528 174.459 330.746 168.189 338.27 168.189C346.028 168.189 352.218 174.458 352.218 182.098V197.378H375.476C383 197.378 389.218 203.7 389.218 211.237C389.218 218.955 383 225.187 375.476 225.187H352.218V245.032C352.218 252.593 346.026 258.941 338.27 258.941C330.746 258.941 324.528 252.593 324.528 245.032V182.098ZM188.14 251.534H245.696C258.945 251.417 275.557 251.3 287.852 263.633C297.329 272.954 301.905 287.085 301.905 307.044V321.731H323.637C331.303 321.731 337.417 328.078 337.417 335.744C337.417 343.383 331.303 349.628 323.637 349.628H301.905V361.135C301.905 368.788 295.623 375.071 288.097 375.071C280.289 375.071 274.11 368.789 274.11 361.135V307.044C274.11 295.28 272.054 287.084 268.319 283.438C264.117 279.005 255.171 279.005 245.759 279.34H188.14C180.28 279.34 174.256 273.071 174.256 265.365C174.256 257.828 180.28 251.534 188.14 251.534ZM176.569 374.153V399.466C176.569 407.184 170.455 413.363 162.568 413.363C154.98 413.363 148.865 407.184 148.865 399.466V374.153H113.611C105.933 374.153 99.6631 367.882 99.6631 360.242C99.6631 352.576 105.935 346.293 113.611 346.293H210.867C218.34 346.293 224.713 352.575 224.713 360.242C224.713 367.882 218.34 374.153 210.867 374.153H176.569ZM247.478 465.488C239.515 473.283 235.727 484.686 235.727 500.406C235.727 507.928 229.418 514.303 221.843 514.303C214.086 514.303 207.997 507.93 207.997 500.406C207.997 477.265 214.732 458.869 227.971 445.811C251.577 422.515 288.73 423.11 310.824 423.446C313.228 423.446 315.219 423.446 317.173 423.446H429.154C446.683 423.446 459.443 419.608 466.657 411.929C478.473 399.466 477.516 377.451 476.662 359.558C476.483 355.266 476.301 351.234 476.301 347.717C476.301 339.986 482.415 333.833 489.978 333.833C497.812 333.833 504.005 339.986 504.005 347.717C504.005 350.806 504.186 354.49 504.367 358.408C505.389 378.925 506.77 409.977 486.967 430.945C474.077 444.441 454.699 451.215 429.154 451.215H317.173C315.117 451.215 312.816 451.215 310.386 451.215C291.459 450.956 262.733 450.516 247.478 465.488ZM391.105 525.265V552.981C391.105 560.752 384.914 566.853 377.248 566.853C369.607 566.853 363.441 560.752 363.441 552.981V525.265H309.699C302.137 525.265 295.777 519.058 295.777 511.367C295.777 503.831 302.136 497.495 309.699 497.495H485.439C493.184 497.495 499.272 503.83 499.272 511.367C499.272 519.058 493.184 525.265 485.439 525.265H391.105ZM578.002 593.743H495.679C488.025 593.743 481.807 587.576 481.807 579.95C481.807 572.231 488.025 566.039 495.679 566.039H543.771V540.21C543.771 532.35 549.962 526.299 557.642 526.299C565.373 526.299 571.474 532.35 571.474 540.21V566.039H578.003C585.604 566.039 591.849 572.231 591.849 579.95C591.847 587.576 585.603 593.743 578.002 593.743ZM613.967 497.496V474.833H549.755C542.126 474.833 535.871 468.745 535.871 461.066C535.871 453.4 542.126 447.116 549.755 447.116H646.777C654.599 447.116 660.79 453.4 660.79 461.066C660.79 468.745 654.599 474.833 646.777 474.833H641.788V497.496C641.788 505.319 635.556 511.368 627.915 511.368C620.263 511.368 613.967 505.319 613.967 497.496ZM685.225 561.282H650.127C642.383 561.282 636.19 555.232 636.19 547.515C636.19 539.797 642.383 533.694 650.127 533.694H685.225C693.008 533.694 699.265 539.797 699.265 547.515C699.265 555.232 693.008 561.282 685.225 561.282Z" fill="#F3B5B8"/>
</svg>
