<svg width="800" height="800" viewBox="0 0 800 800" fill="none" xmlns="http://www.w3.org/2000/svg">
<path fill-rule="evenodd" clip-rule="evenodd" d="M400 66.6665C418.41 66.6665 433.333 81.5905 433.333 99.9998V133.333C433.333 151.743 418.41 166.667 400 166.667C381.59 166.667 366.667 151.743 366.667 133.333V99.9998C366.667 81.5905 381.59 66.6665 400 66.6665Z" fill="white"/>
<path fill-rule="evenodd" clip-rule="evenodd" d="M656.903 143.096C669.92 156.114 669.92 177.219 656.903 190.237L623.57 223.57C610.553 236.588 589.447 236.588 576.43 223.57C563.413 210.553 563.413 189.447 576.43 176.43L609.763 143.096C622.78 130.079 643.887 130.079 656.903 143.096Z" fill="white"/>
<path fill-rule="evenodd" clip-rule="evenodd" d="M633.333 400C633.333 381.59 648.257 366.667 666.667 366.667H700C718.41 366.667 733.333 381.59 733.333 400C733.333 418.41 718.41 433.333 700 433.333H666.667C648.257 433.333 633.333 418.41 633.333 400Z" fill="white"/>
<path fill-rule="evenodd" clip-rule="evenodd" d="M66.6666 400C66.6666 381.59 81.5906 366.667 100 366.667H133.333C151.743 366.667 166.667 381.59 166.667 400C166.667 418.41 151.743 433.333 133.333 433.333H100C81.5906 433.333 66.6666 418.41 66.6666 400Z" fill="white"/>
<path fill-rule="evenodd" clip-rule="evenodd" d="M143.096 143.096C156.114 130.079 177.219 130.079 190.237 143.096L223.57 176.43C236.588 189.447 236.588 210.553 223.57 223.57C210.553 236.588 189.447 236.588 176.43 223.57L143.096 190.237C130.079 177.219 130.079 156.114 143.096 143.096Z" fill="white"/>
<path fill-rule="evenodd" clip-rule="evenodd" d="M400 200C289.543 200 200 289.543 200 400C200 454.44 221.796 503.857 257.062 539.887C265.99 549.01 270.803 557.39 272.289 564.813L289.925 652.953C299.278 699.693 340.317 733.333 387.983 733.333H412.017C459.683 733.333 500.723 699.693 510.073 652.953L527.71 564.813C529.197 557.39 534.01 549.01 542.937 539.887C578.203 503.857 600 454.44 600 400C600 289.543 510.457 200 400 200ZM366.667 533.333C348.257 533.333 333.333 548.257 333.333 566.667C333.333 585.077 348.257 600 366.667 600H433.333C451.743 600 466.667 585.077 466.667 566.667C466.667 548.257 451.743 533.333 433.333 533.333H366.667Z" fill="white"/>
</svg>
