<svg width="800" height="800" viewBox="0 0 800 800" fill="none" xmlns="http://www.w3.org/2000/svg">
<path fill-rule="evenodd" clip-rule="evenodd" d="M433.333 366.666C433.333 348.256 418.41 333.333 400 333.333C381.59 333.333 366.667 348.256 366.667 366.666V416.666H316.667C298.257 416.666 283.333 431.59 283.333 450C283.333 468.41 298.257 483.333 316.667 483.333H366.667V533.333C366.667 551.743 381.59 566.666 400 566.666C418.41 566.666 433.333 551.743 433.333 533.333V483.333H483.333C501.743 483.333 516.667 468.41 516.667 450C516.667 431.59 501.743 416.666 483.333 416.666H433.333V366.666ZM416.067 66.6628C438.693 66.6281 458.773 66.5975 477.32 74.2798C495.867 81.9621 510.047 96.1835 526.02 112.208C557.673 143.958 589.377 175.661 621.127 207.314C637.15 223.289 651.373 237.467 659.053 256.013C666.737 274.56 666.707 294.642 666.67 317.269C666.543 401.133 666.667 484.996 666.667 568.863C666.67 598.413 666.67 623.873 663.93 644.26C660.99 666.11 654.367 687.056 637.377 704.046C620.39 721.033 599.443 727.66 577.593 730.596C557.203 733.336 531.743 733.336 502.193 733.333H297.807C268.257 733.336 242.796 733.336 222.407 730.596C200.557 727.66 179.612 721.033 162.623 704.046C145.634 687.056 139.009 666.11 136.072 644.26C133.33 623.873 133.332 598.413 133.333 568.863L133.334 233.334C133.334 232.6 133.333 231.869 133.333 231.14C133.332 201.59 133.33 176.13 136.072 155.741C139.009 133.891 145.634 112.946 162.623 95.9571C179.612 78.9681 200.557 72.3435 222.407 69.4058C242.796 66.6645 268.256 66.6658 297.806 66.6675C337.227 66.6698 376.647 66.7235 416.067 66.6628Z" fill="white"/>
</svg>
