<svg width="800" height="800" viewBox="0 0 800 800" fill="none" xmlns="http://www.w3.org/2000/svg">
<path fill-rule="evenodd" clip-rule="evenodd" d="M537.5 400C537.5 386.193 526.307 375 512.5 375H146.748L212.103 318.981C222.586 309.996 223.8 294.213 214.815 283.73C205.829 273.247 190.047 272.033 179.564 281.019L62.8971 381.02C57.3557 385.767 54.1667 392.703 54.1667 400C54.1667 407.297 57.3557 414.233 62.8971 418.98L179.564 518.98C190.047 527.967 205.829 526.753 214.815 516.27C223.8 505.787 222.586 490.003 212.103 481.02L146.748 425H512.5C526.307 425 537.5 413.807 537.5 400Z" fill="white"/>
<path d="M312.5 266.666C312.5 290.073 312.5 301.776 318.117 310.183C320.549 313.823 323.675 316.949 327.315 319.382C335.723 324.999 347.427 324.998 370.833 324.998H512.5C553.92 324.998 587.5 358.576 587.5 400C587.5 441.42 553.92 475 512.5 475H370.833C347.427 475 335.72 475 327.313 480.616C323.674 483.05 320.55 486.173 318.118 489.813C312.5 498.22 312.5 509.923 312.5 533.333C312.5 627.613 312.5 674.753 341.79 704.043C371.08 733.333 418.213 733.333 512.493 733.333H545.827C640.107 733.333 687.247 733.333 716.537 704.043C745.827 674.753 745.827 627.613 745.827 533.333V266.666C745.827 172.386 745.827 125.245 716.537 95.9558C687.247 66.6665 640.107 66.6665 545.827 66.6665H512.493C418.213 66.6665 371.08 66.6665 341.79 95.9558C312.5 125.245 312.5 172.386 312.5 266.666Z" fill="white"/>
</svg>
