<svg width="800" height="800" viewBox="0 0 800 800" fill="none" xmlns="http://www.w3.org/2000/svg">
<path d="M694.65 677.9L500 300.3V100.3H550V50.3H499.7V50L476.9 50.25H250V100H300V297.6L105.3 678.05C101.515 685.667 99.7357 694.124 100.131 702.621C100.525 711.118 103.081 719.373 107.557 726.607C112.032 733.84 118.278 739.812 125.705 743.958C133.132 748.104 141.494 750.287 150 750.3H650C658.522 750.291 666.901 748.104 674.34 743.947C681.78 739.789 688.033 733.8 692.506 726.546C696.98 719.292 699.525 711.016 699.9 702.502C700.275 693.988 698.468 685.519 694.65 677.9ZM344.65 320.4L350 309.65V101.8L450 100.6V312.45L455.5 323.2L546.85 500.3H252.45L344.65 320.4ZM150 700.85L227 550.3H572.8L650.15 700.3L150 700.85Z" fill="#023E8A"/>
</svg>
