<svg width="800" height="800" viewBox="0 0 800 800" fill="none" xmlns="http://www.w3.org/2000/svg">
<path d="M266.667 300H533.333" stroke="#023E8A" stroke-width="50" stroke-linecap="round"/>
<path d="M266.667 416.667H450" stroke="#023E8A" stroke-width="50" stroke-linecap="round"/>
<path d="M41.6665 350C41.6665 363.807 52.8595 375 66.6665 375C80.4735 375 91.6665 363.807 91.6665 350H41.6665ZM102.45 520.88C97.1665 508.123 82.5422 502.067 69.7862 507.35C57.0302 512.633 50.9725 527.257 56.2562 540.013L102.45 520.88ZM457.736 725.657L475.806 695.13L432.776 669.66L414.707 700.19L457.736 725.657ZM324.193 695.13L342.263 725.657L385.29 700.19L367.22 669.66L324.193 695.13ZM414.707 700.19C408.283 711.043 391.716 711.043 385.29 700.19L342.263 725.657C368.05 769.223 431.95 769.223 457.736 725.657L414.707 700.19ZM350 91.6668H450V41.6668H350V91.6668ZM708.333 350V383.333H758.333V350H708.333ZM260.083 608.053C218.235 607.33 196.307 604.67 179.119 597.55L159.986 643.743C186.818 654.857 217.379 657.323 259.222 658.043L260.083 608.053ZM56.2562 540.013C75.7092 586.977 113.022 624.29 159.986 643.743L179.119 597.55C144.407 583.17 116.829 555.593 102.45 520.88L56.2562 540.013ZM708.333 383.333C708.333 422.503 708.32 450.63 706.807 472.823C705.307 494.793 702.42 509.12 697.55 520.88L743.743 540.013C751.56 521.147 755.016 500.743 756.69 476.227C758.346 451.937 758.333 421.82 758.333 383.333H708.333ZM540.777 658.043C582.62 657.323 613.183 654.857 640.013 643.743L620.88 597.55C603.693 604.67 581.763 607.33 539.917 608.053L540.777 658.043ZM697.55 520.88C683.17 555.593 655.593 583.17 620.88 597.55L640.013 643.743C686.976 624.29 724.29 586.977 743.743 540.013L697.55 520.88ZM450 91.6668C505.04 91.6668 544.566 91.6931 575.396 94.6244C605.857 97.5204 625.237 103.074 640.686 112.543L666.813 69.9108C642.183 54.8191 614.246 48.0931 580.13 44.8491C546.383 41.6404 504.073 41.6668 450 41.6668V91.6668ZM758.333 350C758.333 295.927 758.36 253.617 755.15 219.87C751.906 185.752 745.18 157.815 730.09 133.188L687.456 159.313C696.926 174.764 702.48 194.145 705.377 224.603C708.307 255.433 708.333 294.959 708.333 350H758.333ZM640.686 112.543C659.75 124.224 675.776 140.251 687.456 159.313L730.09 133.188C714.286 107.398 692.603 85.7148 666.813 69.9108L640.686 112.543ZM350 41.6668C295.927 41.6668 253.616 41.6404 219.87 44.8491C185.752 48.0931 157.815 54.8191 133.188 69.9108L159.312 112.543C174.764 103.074 194.145 97.5204 224.603 94.6244C255.433 91.6931 294.958 91.6668 350 91.6668V41.6668ZM91.6665 350C91.6665 294.959 91.6928 255.433 94.6242 224.603C97.5202 194.145 103.074 174.764 112.543 159.313L69.9105 133.188C54.8188 157.815 48.0928 185.752 44.8488 219.87C41.6402 253.617 41.6665 295.927 41.6665 350H91.6665ZM133.188 69.9108C107.398 85.7148 85.7145 107.398 69.9105 133.188L112.543 159.313C124.224 140.251 140.251 124.224 159.312 112.543L133.188 69.9108ZM367.22 669.66C360.453 658.227 354.513 648.137 348.736 640.21C342.65 631.863 335.673 624.347 325.995 618.717L300.857 661.94C302.437 662.857 304.591 664.533 308.328 669.66C312.374 675.213 316.945 682.883 324.193 695.13L367.22 669.66ZM259.222 658.043C273.858 658.297 283.129 658.483 290.196 659.263C296.799 659.997 299.359 661.067 300.857 661.94L325.995 618.717C316.236 613.04 306.082 610.717 295.699 609.567C285.779 608.47 273.791 608.29 260.083 608.053L259.222 658.043ZM475.806 695.13C483.053 682.883 487.623 675.213 491.67 669.66C495.406 664.533 497.56 662.857 499.14 661.94L474.003 618.717C464.327 624.347 457.346 631.863 451.263 640.21C445.486 648.137 439.547 658.227 432.776 669.66L475.806 695.13ZM539.917 608.053C526.206 608.29 514.22 608.47 504.3 609.567C493.916 610.717 483.763 613.04 474.003 618.717L499.14 661.94C500.64 661.067 503.2 659.997 509.803 659.263C516.87 658.483 526.14 658.297 540.777 658.043L539.917 608.053Z" fill="#023E8A"/>
</svg>
