<svg width="800" height="800" viewBox="0 0 800 800" fill="none" xmlns="http://www.w3.org/2000/svg">
<path d="M400 195.133V699.997" stroke="#5E5E5E" stroke-width="50"/>
<path d="M166.667 300L300 333.333" stroke="#5E5E5E" stroke-width="50" stroke-linecap="round"/>
<path d="M633.333 300L500 333.333" stroke="#5E5E5E" stroke-width="50" stroke-linecap="round"/>
<path d="M166.667 433.333L300 466.667" stroke="#5E5E5E" stroke-width="50" stroke-linecap="round"/>
<path d="M633.333 433.333L500 466.667" stroke="#5E5E5E" stroke-width="50" stroke-linecap="round"/>
<path d="M758.333 351.28C758.333 337.473 747.14 326.28 733.333 326.28C719.526 326.28 708.333 337.473 708.333 351.28H758.333ZM708.333 233.333C708.333 247.14 719.526 258.333 733.333 258.333C747.14 258.333 758.333 247.14 758.333 233.333H708.333ZM41.6665 352.357C41.6665 366.163 52.8595 377.357 66.6665 377.357C80.4735 377.357 91.6665 366.163 91.6665 352.357H41.6665ZM91.6665 466.667C91.6665 452.86 80.4735 441.667 66.6665 441.667C52.8595 441.667 41.6665 452.86 41.6665 466.667H91.6665ZM668.53 75.6067C630.583 76.9284 580.987 80.8758 542.83 92.2984L557.17 140.198C588.81 130.726 632.973 126.876 670.27 125.576L668.53 75.6067ZM542.83 92.2984C509.663 102.228 472.353 121.623 443.273 138.454L468.317 181.729C496.667 165.323 529.83 148.383 557.17 140.198L542.83 92.2984ZM131.213 127.449C163.412 129.428 199.881 133.276 226.954 140.421L239.712 92.0757C207.685 83.6244 167.172 79.5651 134.28 77.5434L131.213 127.449ZM226.954 140.421C259.025 148.884 298.495 167.399 331.055 184.616L354.426 140.415C321.245 122.869 277.588 102.07 239.712 92.0757L226.954 140.421ZM466.013 691.037C499.046 673.427 539.96 654.017 573.047 645.283L560.286 596.94C521.276 607.233 476.09 629.003 442.493 646.913L466.013 691.037ZM573.047 645.283C599.81 638.22 635.773 634.377 667.733 632.38L664.61 582.477C631.94 584.52 591.97 588.58 560.286 596.94L573.047 645.283ZM357.506 646.913C323.909 629.003 278.723 607.233 239.712 596.94L226.954 645.283C260.04 654.017 300.953 673.427 333.986 691.037L357.506 646.913ZM239.712 596.94C208.03 588.58 168.058 584.52 135.389 582.477L132.268 632.38C164.226 634.377 200.188 638.22 226.954 645.283L239.712 596.94ZM708.333 538.12C708.333 560.977 689.39 580.927 664.61 582.477L667.733 632.38C716.873 629.303 758.333 589.327 758.333 538.12H708.333ZM758.333 164.44C758.333 115.663 719.49 73.8317 668.53 75.6067L670.27 125.576C690.763 124.863 708.333 141.72 708.333 164.44H758.333ZM41.6665 538.12C41.6665 589.327 83.1258 629.303 132.268 632.38L135.389 582.477C110.61 580.927 91.6665 560.977 91.6665 538.12H41.6665ZM442.493 646.913C416.083 660.99 383.916 660.99 357.506 646.913L333.986 691.037C375.096 712.95 424.903 712.95 466.013 691.037L442.493 646.913ZM443.273 138.454C416.003 154.236 382.056 155.023 354.426 140.415L331.055 184.616C374.13 207.392 426.367 206.008 468.317 181.729L443.273 138.454ZM91.6665 166.593C91.6665 143.354 110.081 126.15 131.213 127.449L134.28 77.5434C82.3388 74.3511 41.6665 116.621 41.6665 166.593H91.6665ZM758.333 538.12V351.28H708.333V538.12H758.333ZM758.333 233.333V164.44H708.333V233.333H758.333ZM91.6665 352.357V166.593H41.6665V352.357H91.6665ZM91.6665 538.12V466.667H41.6665V538.12H91.6665Z" fill="#5E5E5E"/>
</svg>
