<svg width="800" height="800" viewBox="0 0 800 800" fill="none" xmlns="http://www.w3.org/2000/svg">
<path d="M144.592 652.208H213.168C222 652.208 229.168 645.056 229.168 636.208V519.184C229.168 510.336 222 503.184 213.168 503.184H144.592C135.76 503.184 128.592 510.336 128.592 519.184V636.208C128.592 645.04 135.76 652.208 144.592 652.208ZM160.592 535.168H197.168V620.192H160.592V535.168Z" fill="#5E5E5E"/>
<path d="M350.304 652.208C359.136 652.208 366.304 645.056 366.304 636.208V305.968C366.304 297.12 359.136 289.968 350.304 289.968H281.728C272.896 289.968 265.728 297.12 265.728 305.968V636.208C265.728 645.056 272.896 652.208 281.728 652.208H350.304ZM297.728 321.968H334.304V620.208H297.728V321.968Z" fill="#5E5E5E"/>
<path d="M487.44 652.208C496.272 652.208 503.44 645.056 503.44 636.208V415.36C503.44 406.512 496.272 399.36 487.44 399.36H418.88C410.048 399.36 402.88 406.512 402.88 415.36V636.208C402.88 645.056 410.048 652.208 418.88 652.208H487.44ZM434.88 431.36H471.456V620.208H434.88V431.36Z" fill="#5E5E5E"/>
<path d="M540.016 156.208V636.208C540.016 645.056 547.184 652.208 556.016 652.208H624.592C633.424 652.208 640.592 645.056 640.592 636.208V156.208C640.592 147.36 633.424 140.208 624.592 140.208H556.016C547.184 140.208 540.016 147.36 540.016 156.208ZM572.016 172.208H608.592V620.208H572.016V172.208Z" fill="#5E5E5E"/>
</svg>
