<svg width="800" height="800" viewBox="0 0 800 800" fill="none" xmlns="http://www.w3.org/2000/svg">
<path d="M377.774 419.343C379.471 419.411 381.144 419.647 382.793 420.051C385.813 420.823 388.666 423.034 390.214 425.737C391.629 428.208 391.745 430.965 390.897 433.656C389.593 437.789 386.433 439.395 382.802 441.299C381.126 441.529 379.454 441.503 377.791 441.175C375.167 440.656 372.636 438.97 371.213 436.701C369.498 433.966 369.494 430.806 370.259 427.75C371.354 423.381 374.09 421.585 377.774 419.343Z" fill="white"/>
<path d="M417.201 419.393C418.567 419.346 419.927 419.412 421.282 419.592C424.448 420.029 427.619 421.699 429.521 424.32C431.157 426.575 431.601 429.236 431.107 431.952C430.246 436.677 426.97 439.072 423.203 441.602C422.206 441.643 421.224 441.607 420.231 441.503C416.873 441.151 413.422 439.735 411.303 436.997C409.572 434.76 409.071 432.133 409.542 429.375C410.374 424.509 413.367 422.121 417.201 419.393Z" fill="white"/>
<path d="M240.364 276.841C254.746 276.617 267.551 277.779 278.415 288.26C284.738 294.36 288.556 302.383 288.718 311.217C289.043 328.95 274.928 345.121 269.038 361.317C256.917 394.642 255.822 454.961 283.206 481.646C285.082 483.475 289.373 486.419 289.373 486.419C293.683 488.549 296.1 489.744 300.41 491.874C304.72 494.004 310.193 494.404 316.525 493.976C326.003 493.336 339.248 485.294 339.248 485.294C339.248 485.294 346.577 480.135 350.47 478.113C338.886 495.213 326.379 509.127 305.047 513.144C303.176 513.501 301.292 513.765 299.394 513.935C297.497 514.105 295.596 514.18 293.69 514.159C291.786 514.142 289.886 514.027 287.993 513.816C286.099 513.608 284.22 513.308 282.357 512.915C280.493 512.52 278.653 512.034 276.838 511.456C275.023 510.879 273.24 510.213 271.491 509.457C269.742 508.701 268.035 507.861 266.369 506.939C264.703 506.013 263.087 505.008 261.521 503.924C241.335 489.878 233.96 463.377 229.972 440.28C225.375 413.653 226.893 383.799 234.876 358.061C237.061 350.979 239.72 344.08 242.853 337.364C248.127 326.325 260.606 310.563 258.899 297.856C257.714 289.029 246.952 281.866 240.364 276.841Z" fill="white"/>
<path d="M520.732 289.226C523.322 287.17 525.351 286.026 528.325 284.321C531.093 282.733 535.446 280.817 535.446 280.817C535.446 280.817 541.933 278.058 543.66 278.039L548.146 277.551L558.568 277.313C552.166 286.414 538.945 292.937 541.221 306.323C543.264 318.362 553.503 330.288 558.293 341.746C574.28 379.981 577.29 420.377 565.461 460.285C562.292 470.987 558.438 481.886 552.049 491.124C551.003 492.647 549.884 494.115 548.691 495.528C547.499 496.94 546.241 498.289 544.917 499.575C543.589 500.861 542.202 502.079 540.755 503.227C539.305 504.376 537.803 505.45 536.251 506.449C534.695 507.448 533.094 508.366 531.448 509.204C529.801 510.042 528.117 510.797 526.394 511.468C524.674 512.139 522.924 512.723 521.143 513.221C519.361 513.716 517.561 514.122 515.742 514.438C500.81 517.106 484.497 513.898 472.017 505.17C466.669 501.425 454.198 494.258 453.468 482.989C453.388 481.755 453.468 479.824 453.468 479.824C460.35 487.677 482.896 491.736 482.896 491.736C482.896 491.736 488.407 493.036 492.005 493.137C496.415 493.262 498.925 492.763 503.216 491.736C506.582 490.93 508.509 490.442 511.624 488.933C524.133 482.875 526.583 470.385 531.008 459.081C542.97 428.525 543.212 390.478 530.296 360.102C525.853 349.646 518.967 340.284 514.489 329.852C509.335 317.838 510.653 308.297 515.329 296.521C516.638 293.041 517.956 291.43 520.732 289.226Z" fill="white"/>
<path d="M299.648 482.014C307.241 477.817 315.631 473.664 318.3 464.69C322.144 451.764 312.245 435.984 310.046 423.132C303.725 386.191 323.326 348.484 355.407 330.276C356.693 329.538 357.997 328.832 359.318 328.158C360.639 327.484 361.976 326.844 363.329 326.236C364.681 325.628 366.048 325.053 367.429 324.512C368.81 323.971 370.203 323.465 371.609 322.993C373.014 322.52 374.431 322.083 375.858 321.68C377.286 321.278 378.722 320.91 380.167 320.578C381.613 320.246 383.065 319.95 384.525 319.689C385.985 319.429 387.45 319.204 388.921 319.016C390.392 318.827 391.867 318.675 393.345 318.559C394.824 318.443 396.304 318.363 397.787 318.32C399.269 318.277 400.752 318.27 402.234 318.3C403.717 318.33 405.198 318.396 406.677 318.498C408.156 318.601 409.633 318.739 411.105 318.915C412.578 319.09 414.045 319.301 415.508 319.548C416.97 319.796 418.425 320.079 419.873 320.397C421.321 320.716 422.761 321.07 424.192 321.46C447.505 327.965 467.697 342.971 479.479 364.213C490.223 383.582 495.154 407.578 489.059 429.179C485.684 441.135 477.057 456.295 483.785 468.214C487.622 475.013 495.158 479.258 502.11 482.247C496.406 484.712 489.828 485.684 483.631 485.235C473.032 484.471 465.017 479.592 458.135 471.739C451.886 462.839 448.713 454.59 450.642 443.465C455.169 417.365 466.941 403.531 448.142 376.663C447.023 375.062 445.829 373.52 444.561 372.036C443.289 370.552 441.949 369.134 440.54 367.781C439.13 366.428 437.659 365.148 436.125 363.94C434.59 362.732 433 361.601 431.354 360.549C429.709 359.497 428.016 358.527 426.276 357.641C424.535 356.755 422.756 355.956 420.937 355.244C419.118 354.532 417.269 353.911 415.389 353.38C413.509 352.85 411.608 352.412 409.686 352.068C407.849 351.755 406.002 351.533 404.143 351.403C402.284 351.273 400.424 351.235 398.561 351.289C396.699 351.343 394.843 351.489 392.996 351.726C391.148 351.964 389.316 352.293 387.501 352.712C385.685 353.131 383.895 353.639 382.13 354.235C380.364 354.832 378.633 355.514 376.935 356.282C375.238 357.05 373.582 357.9 371.969 358.832C370.355 359.763 368.792 360.773 367.278 361.86C354.906 370.681 345.88 384.107 343.488 399.201C338.618 429.934 367.53 455.021 334.1 479.676L333.504 480.107C323.973 484.796 313.515 487.138 303.092 483.596C301.886 483.183 300.758 482.629 299.648 482.014Z" fill="white"/>
<path d="M509.875 287.612C510.209 282.06 512.956 276.98 515.737 272.28C523.164 259.724 536.22 251.05 550.242 247.567C552.158 247.072 554.093 246.675 556.047 246.375C558.004 246.075 559.97 245.874 561.945 245.771C563.922 245.668 565.898 245.665 567.873 245.761C569.85 245.856 571.818 246.05 573.775 246.343C575.729 246.636 577.665 247.026 579.584 247.513C581.5 248.001 583.388 248.583 585.248 249.26C587.109 249.936 588.93 250.704 590.711 251.564C592.492 252.423 594.226 253.37 595.914 254.404C622.461 270.688 640.328 323.632 647.316 352.666C660.969 409.412 653.165 472.811 626.503 524.833C619.938 537.635 611.07 548.723 603.692 560.985C600.062 567.014 597.975 574.107 599.856 581.1C602.154 589.661 608.965 594.447 616.115 598.701C611.154 598.74 605.863 599.009 600.95 598.283C591.612 596.908 582.423 591.946 576.851 584.251C572.294 577.953 568.827 567.063 570.246 559.275C573.124 543.493 585.046 530.005 592.658 516.25C605.379 493.247 614.472 468.496 618.374 442.471C625.809 392.93 614.722 329.234 584.405 288.477C577.189 278.778 567.798 271.441 555.621 269.689C547.909 269.36 539.735 269.154 532.265 271.423C522.377 275.444 517.978 281.449 509.875 287.612Z" fill="white"/>
<path d="M227.768 246.142C238.204 244.724 249.471 245.998 259.138 250.232C277.484 258.264 285.982 272.954 292.898 290.784C289.66 287.388 286.421 283.914 282.92 280.787C273.724 272.573 262.178 268.003 249.79 268.828C237.543 269.643 227.59 275.656 219.635 284.785C209.207 296.752 201.811 312.421 196.096 327.183C194.741 330.612 193.471 334.072 192.287 337.563C191.103 341.054 190.005 344.572 188.995 348.118C187.984 351.663 187.061 355.231 186.227 358.822C185.392 362.413 184.646 366.022 183.989 369.65C183.332 373.278 182.765 376.919 182.287 380.575C181.81 384.231 181.423 387.896 181.127 391.57C180.83 395.245 180.624 398.925 180.509 402.61C180.394 406.294 180.369 409.98 180.436 413.666C180.503 417.352 180.66 421.034 180.908 424.713C181.156 428.391 181.494 432.061 181.923 435.722C182.352 439.384 182.871 443.032 183.48 446.666C184.089 450.302 184.787 453.922 185.574 457.526C186.361 461.127 187.237 464.707 188.201 468.267C189.164 471.824 190.215 475.356 191.354 478.863C192.491 482.37 193.715 485.846 195.024 489.292C196.334 492.737 197.727 496.149 199.205 499.527C203.296 508.715 208.075 517.531 213.541 525.975C218.492 533.561 225.197 541.287 228.503 549.725C230.134 553.887 230.423 558.233 230.724 562.655C230.18 572.143 227.572 581.196 220.737 588.136C211.029 597.993 198.317 598.767 185.317 598.815C189.904 595.163 194.651 591.603 197.922 586.65C200.976 582.027 202.711 576.582 201.123 571.093C197.928 560.048 188.307 548.112 182.326 538.197C168.064 514.558 158.096 489.907 152.693 462.787C140.088 399.517 149.592 328.175 186.037 273.957C196.811 257.927 208.902 249.816 227.768 246.142Z" fill="white"/>
<path d="M623.766 168.115C630.217 168.792 633.447 170.277 638.412 174.467C649.649 183.944 659.264 196.523 667.969 208.319C672.648 214.594 677.105 221.024 681.342 227.608C685.575 234.193 689.577 240.915 693.347 247.776C697.118 254.637 700.646 261.62 703.933 268.725C707.221 275.83 710.259 283.041 713.048 290.356C715.837 297.671 718.369 305.074 720.646 312.564C722.922 320.054 724.936 327.614 726.688 335.244C728.443 342.874 729.931 350.555 731.153 358.288C732.374 366.02 733.328 373.786 734.013 381.585C740.227 456.278 716.967 552.59 667.684 610.422C657.3 622.613 643.268 630.669 627.145 631.851C610.328 633.086 595.189 626.551 582.629 615.744C573.436 606.273 569.31 594.433 564.999 582.291C571.353 590.096 577.668 597.422 586.62 602.335C596.059 607.512 607.216 609.081 617.605 606.018C639.489 599.562 653.393 574.982 663.755 556.155C665.416 553.178 667.026 550.173 668.585 547.141C670.143 544.108 671.65 541.051 673.107 537.969C674.563 534.887 675.964 531.779 677.312 528.647C678.663 525.515 679.959 522.363 681.201 519.19C682.443 516.014 683.631 512.819 684.765 509.605C685.902 506.388 686.981 503.155 688.004 499.905C689.029 496.653 689.997 493.385 690.908 490.1C691.822 486.813 692.681 483.513 693.483 480.199C694.283 476.885 695.027 473.56 695.716 470.223C696.404 466.883 697.036 463.532 697.61 460.172C698.184 456.811 698.701 453.442 699.161 450.064C699.621 446.685 700.024 443.3 700.37 439.908C700.712 436.516 700.999 433.119 701.231 429.718C701.459 426.316 701.631 422.911 701.745 419.504C701.859 416.096 701.915 412.688 701.912 409.279C701.912 405.869 701.852 402.461 701.732 399.054C701.615 395.646 701.44 392.242 701.209 388.841C700.975 385.439 700.683 382.043 700.334 378.651C699.986 375.26 699.58 371.876 699.117 368.498C698.651 365.12 698.13 361.751 697.553 358.391C696.976 355.031 696.341 351.682 695.65 348.344C694.959 345.005 694.21 341.679 693.404 338.367C692.599 335.054 691.737 331.755 690.82 328.471C689.903 325.187 688.932 321.92 687.907 318.669C686.879 315.419 685.795 312.187 684.655 308.973C683.518 305.759 682.328 302.565 681.082 299.392C679.834 296.218 678.535 293.067 677.185 289.937C675.831 286.808 674.425 283.703 672.966 280.621C671.507 277.54 669.997 274.484 668.435 271.453C666.871 268.423 665.257 265.42 663.593 262.445C661.928 259.469 660.215 256.523 658.451 253.606C656.687 250.689 654.874 247.802 653.011 244.947C647.746 236.949 642.154 229.188 636.233 221.661C628.718 212.302 612.613 199.842 609.58 188.476C608.53 184.542 608.693 180.101 610.776 176.532C613.821 171.314 618.132 169.496 623.766 168.115Z" fill="white"/>
<path d="M171.689 168C177.36 168.348 182.326 169.076 186.989 172.692C189.815 174.884 191.963 177.999 192.36 181.607C193.732 194.063 174.482 209.916 166.927 219.029C115.379 281.2 93.3585 361.126 100.876 441.067C105.109 486.075 120.538 528.924 143.798 567.498C150.197 578.111 156.977 589.3 166.66 597.237C175.582 604.555 186.837 608.624 198.423 607.464C214.689 605.829 225.247 595.044 235.087 583.121C231.932 593.831 228.737 602.072 222.117 611.213C219.349 614.383 216.287 617.238 212.931 619.778C209.575 622.319 205.996 624.49 202.193 626.291C200.481 627.097 198.732 627.818 196.948 628.454C195.164 629.087 193.353 629.632 191.515 630.089C189.678 630.543 187.822 630.906 185.948 631.178C184.074 631.448 182.191 631.625 180.3 631.71C178.408 631.798 176.517 631.791 174.627 631.688C172.736 631.586 170.855 631.391 168.984 631.104C167.112 630.814 165.26 630.434 163.426 629.966C161.592 629.494 159.786 628.933 158.008 628.282C127.113 616.966 107.452 573.338 94.5024 545.361C58.9799 468.614 57.14 372.474 86.3067 293.455C89.9348 283.84 93.9799 274.403 98.442 265.146C102.904 255.888 107.766 246.845 113.027 238.017C118.288 229.189 123.928 220.611 129.947 212.281C135.966 203.952 142.341 195.904 149.071 188.138C155.505 180.774 162.684 172.159 171.689 168Z" fill="white"/>
</svg>
