<svg width="800" height="800" viewBox="0 0 800 800" fill="none" xmlns="http://www.w3.org/2000/svg">
<g clip-path="url(#clip0_72_39)">
<path d="M753.403 377.639C742.363 371.362 729.866 368.072 717.182 368.072C713.632 368.072 710.139 368.36 706.662 368.851C705.19 361.131 701.64 353.54 696.43 346.801C661.479 301.69 626.946 255.901 589.527 212.768C585.125 207.688 580.306 204.34 575.428 202.334C561.445 192.233 544.387 186.215 525.815 186.215C493.706 186.215 465.841 204.066 451.439 230.359C429.605 246.406 407.814 262.467 385.966 278.514C380.338 279.582 374.71 280.65 369.111 281.732C352.847 284.821 336.598 287.909 320.335 291.011C296.683 295.514 273.045 300.002 249.379 304.504C228.122 308.559 220.026 324.866 221.585 341.303L136.587 364.738L52.7013 152.028L23.8541 163.429L199.578 609.008L228.439 597.622L142.317 379.241L225.741 356.253C233 371.578 248.873 383.311 269.986 379.27C317.29 370.28 364.594 361.275 411.884 352.27C421.437 350.452 431.437 344.044 441.063 336.555V465.191C441.063 469.39 441.452 473.445 442.03 477.5C442.03 561.214 442.03 644.955 442.03 728.64C442.03 778.671 519.566 778.671 519.566 728.64C519.566 668.968 519.566 609.283 519.566 549.626C521.644 549.77 523.679 549.929 525.786 549.929C531.818 549.929 537.677 549.265 543.363 548.067C563.696 609.961 582.196 672.374 596.713 735.985C607.84 784.703 682.562 764.038 671.494 715.363C654.191 639.515 631.217 565.355 606.223 491.801C608.98 483.432 610.567 474.513 610.567 465.191V361.477C620.928 374.854 631.261 388.26 641.593 401.623C644.046 404.813 647.192 407.064 650.555 408.868C641.839 425.665 639.616 444.771 644.494 463.084C649.631 482.32 661.941 498.295 679.171 508.108C680.816 509.032 682.577 509.522 684.308 509.522C692.274 509.522 695.131 501.412 698.22 492.812C701.495 483.489 704.627 475.798 709.533 475.798C710.067 475.798 710.688 475.87 711.308 476.014C720.025 477.991 725.653 488.251 730.169 496.419C734.657 504.558 738.496 511.615 745.856 511.615C747.717 511.615 749.564 511.081 751.325 510.071C760.907 504.428 771.182 496.592 783.636 485.409C795.959 474.355 801.472 459.794 799.668 443.242C797.056 418.608 778.007 391.637 753.403 377.639ZM387.222 278.283C391.912 277.331 390.858 276.609 387.222 278.283ZM775.092 475.798C763.909 485.841 754.687 492.97 746.26 498.108C744.903 496.39 742.984 492.927 741.541 490.228C736.086 480.3 728.611 466.692 714.18 463.445C712.665 463.142 711.092 462.911 709.62 462.911C695.189 462.911 689.749 478.294 686.141 488.482C685.347 490.69 684.308 493.634 683.399 495.611C670.368 487.458 661.031 474.831 656.991 459.751C652.734 443.833 654.913 427.079 663.124 412.648C671.84 413.529 680.932 411.552 688.464 407.381C688.046 408.565 687.685 409.806 687.685 411.104C687.685 417.367 692.75 422.404 698.97 422.404C705.19 422.404 710.212 417.339 710.212 411.104C710.212 404.885 705.161 399.863 698.97 399.863C698.523 399.863 698.119 400.05 697.7 400.108C702.823 394.48 705.839 388.318 706.936 381.925C710.313 381.348 713.718 380.958 717.211 380.958C727.644 380.958 737.962 383.686 747.01 388.838C764.948 399.04 784.429 421.48 786.926 444.598C788.268 457.038 784.285 467.558 775.092 475.798Z" fill="#5EC289"/>
<path d="M676.429 454.787C682.654 454.787 687.7 449.741 687.7 443.516C687.7 437.292 682.654 432.246 676.429 432.246C670.205 432.246 665.159 437.292 665.159 443.516C665.159 449.741 670.205 454.787 676.429 454.787Z" fill="#5EC289"/>
<path d="M738.669 399.849C732.449 399.849 727.442 404.885 727.442 411.09C727.442 417.353 732.464 422.39 738.669 422.39C744.918 422.39 749.968 417.324 749.968 411.09C749.968 404.885 744.918 399.849 738.669 399.849Z" fill="#5EC289"/>
<path d="M763.375 451.107C769.607 451.107 774.66 446.054 774.66 439.822C774.66 433.59 769.607 428.537 763.375 428.537C757.142 428.537 752.09 433.59 752.09 439.822C752.09 446.054 757.142 451.107 763.375 451.107Z" fill="#5EC289"/>
<path d="M99.7312 360.871L-1.52588e-05 744.918L223.663 744.774L141.739 494.688L99.7312 360.871ZM30.1171 721.497L101.853 445.248L119.602 501.817L191.598 721.684L30.1171 721.497Z" fill="#5EC289"/>
<path d="M525.858 178.206C558.212 178.206 584.462 151.971 584.462 119.617H467.298C467.255 151.971 493.533 178.206 525.858 178.206Z" fill="#5EC289"/>
<path d="M491.167 110.843L562.426 110.684C584.837 110.684 603.02 99.3128 603.02 81.9526C603.02 65.9056 587.492 52.7014 567.477 50.7532C559.352 40.6084 544.921 33.8403 528.384 33.8403C510.489 33.8403 495.02 41.7628 487.415 53.293C468.611 54.7506 453.921 67.0456 453.921 82.0103C453.935 97.9419 470.617 110.843 491.167 110.843Z" fill="#5EC289"/>
</g>
<defs>
<clipPath id="clip0_72_39">
<rect width="800" height="800" fill="white"/>
</clipPath>
</defs>
</svg>
