<svg width="800" height="800" viewBox="0 0 800 800" fill="none" xmlns="http://www.w3.org/2000/svg">
<path d="M742.868 514.308L682.714 363.077V316.923C681.852 230.738 646.345 154.123 589.668 97.7538C533.022 41.3846 454.929 6.15381 368.868 6.15381C365.914 6.15381 362.96 6.18458 360.006 6.27689V205.046C411.668 224.646 448.468 274.646 448.468 333.077C448.468 408.585 387.052 470 311.545 470C236.037 470 174.622 408.585 174.622 333.077C174.622 275.231 210.708 226.154 261.538 206.154V24.6153C141.262 68.7077 55.3846 183.969 55.3846 320C55.3846 410.185 93.1754 492.923 153.668 550.308L153.483 793.846H498.098V732.308H559.637C627.575 732.308 682.714 677.446 682.714 609.231V547.692H719.637C737.052 547.692 749.329 530.492 742.868 514.308ZM596.406 396.923C577.729 396.923 562.591 381.723 562.591 362.954C562.591 344.185 577.729 329.015 596.406 329.015C615.083 329.015 630.222 344.185 630.222 362.954C630.222 381.723 615.083 396.923 596.406 396.923ZM236.16 333.077C236.16 374.646 269.975 408.462 311.545 408.462C353.114 408.462 386.929 374.646 386.929 333.077C386.929 291.508 353.114 257.692 311.545 257.692C269.975 257.692 236.16 291.508 236.16 333.077Z" fill="#4FA1B1"/>
</svg>
