<svg width="800" height="800" viewBox="0 0 800 800" fill="none" xmlns="http://www.w3.org/2000/svg">
<path fill-rule="evenodd" clip-rule="evenodd" d="M44.4446 111.25H133.333V200.139H488.888V111.25H577.779V177.917H622.221V66.8055H485.096C475.942 40.9126 451.25 22.3613 422.221 22.3613H200C170.973 22.3613 146.279 40.9126 137.127 66.8055H0V777.917H622.221V644.583H577.779V733.471H44.4446V111.25ZM177.778 155.695V89.028C177.778 76.7547 187.727 66.8055 200 66.8055H422.221C434.496 66.8055 444.446 76.7547 444.446 89.028V155.695H177.778Z" fill="white"/>
<path fill-rule="evenodd" clip-rule="evenodd" d="M698.987 220.129L793.104 314.247C802.279 323.423 802.279 338.294 793.104 347.517L510.75 629.871C506.325 634.246 500.35 636.742 494.092 636.742H399.974C386.986 636.742 376.445 626.2 376.445 613.213V519.092C376.445 512.833 378.939 506.858 383.315 502.483L665.667 220.129C674.892 210.906 689.762 210.906 698.987 220.129ZM634.233 318.106L695.079 378.953L743.175 330.858L682.325 270.011L634.233 318.106ZM423.504 589.683H484.35L661.808 412.225L600.963 351.376L423.504 528.833V589.683Z" fill="white"/>
</svg>
