<svg width="800" height="800" viewBox="0 0 800 800" fill="none" xmlns="http://www.w3.org/2000/svg">
<path d="M428.333 229.868C428.333 237.389 425.348 244.603 420.034 249.922C414.721 255.24 407.514 258.228 400 258.228C377.456 258.228 355.836 267.192 339.896 283.148C323.955 299.104 315 320.745 315 343.311C315 350.832 312.015 358.046 306.701 363.365C301.388 368.683 294.181 371.671 286.666 371.671C279.152 371.671 271.945 368.683 266.632 363.365C261.318 358.046 258.333 350.832 258.333 343.311C258.378 305.716 273.318 269.674 299.876 243.09C326.434 216.506 362.441 201.552 400 201.507C407.514 201.507 414.721 204.495 420.034 209.814C425.348 215.132 428.333 222.346 428.333 229.868ZM654.999 343.311C655.119 390.864 641.906 437.497 616.862 477.907C591.818 518.316 555.949 550.881 513.333 571.898V598.557C513.333 606.079 510.348 613.293 505.034 618.611C499.721 623.93 492.514 626.918 484.999 626.918H315C307.485 626.918 300.279 623.93 294.965 618.611C289.652 613.293 286.666 606.079 286.666 598.557V571.898C245.956 551.68 211.382 520.939 186.525 482.857C161.668 444.774 147.43 400.734 145.284 355.295C143.139 309.856 153.165 264.668 174.324 224.409C195.482 184.15 227.005 150.282 265.63 126.312C304.255 102.341 348.578 89.1386 394.011 88.0704C439.445 87.0022 484.338 98.1071 524.045 120.236C563.752 142.365 596.829 174.713 619.852 213.934C642.876 253.154 655.011 297.82 654.999 343.311ZM598.333 343.311C598.349 307.286 588.572 271.936 570.05 241.049C551.528 210.162 524.959 184.902 493.189 167.975C461.42 151.048 425.648 143.094 389.707 144.963C353.766 146.832 319.011 158.456 289.165 178.587C259.32 198.719 235.509 226.599 220.285 259.242C205.061 291.884 198.998 328.058 202.744 363.887C206.491 399.716 219.906 433.848 241.553 462.628C263.199 491.408 292.262 513.749 325.625 527.258C330.857 529.377 335.337 533.011 338.492 537.695C341.647 542.379 343.333 547.899 343.333 553.549V570.196H456.666V553.549C456.666 547.899 458.352 542.379 461.507 537.695C464.662 533.011 469.143 529.377 474.374 527.258C511.047 512.525 542.462 487.12 564.56 454.329C586.657 421.537 598.422 382.865 598.333 343.311ZM484.999 712C492.514 712 499.721 709.012 505.034 703.693C510.348 698.375 513.333 691.161 513.333 683.639C513.333 676.118 510.348 668.904 505.034 663.585C499.721 658.267 492.514 655.279 484.999 655.279H315C307.485 655.279 300.279 658.267 294.965 663.585C289.652 668.904 286.666 676.118 286.666 683.639C286.666 691.161 289.652 698.375 294.965 703.693C300.279 709.012 307.485 712 315 712H484.999Z" fill="#FFAF07"/>
</svg>
