<svg width="800" height="800" viewBox="0 0 800 800" fill="none" xmlns="http://www.w3.org/2000/svg">
<path fill-rule="evenodd" clip-rule="evenodd" d="M133.333 700H533.333C551.743 700 566.667 685.076 566.667 666.667V133.333C566.667 114.924 551.743 99.9998 533.333 99.9998H133.333C114.924 99.9998 100 114.924 100 133.333V666.667C100 685.076 114.924 700 133.333 700ZM533.333 733.333H133.333C96.5144 733.333 66.6667 703.485 66.6667 666.667V133.333C66.6667 96.5142 96.5144 66.6665 133.333 66.6665H533.333C570.152 66.6665 600 96.5142 600 133.333V666.667C600 703.485 570.152 733.333 533.333 733.333Z" fill="white"/>
<path fill-rule="evenodd" clip-rule="evenodd" d="M300 216.667C300 207.462 307.462 200 316.667 200H516.667C525.872 200 533.333 207.462 533.333 216.667C533.333 225.872 525.872 233.333 516.667 233.333H316.667C307.462 233.333 300 225.872 300 216.667Z" fill="white"/>
<path fill-rule="evenodd" clip-rule="evenodd" d="M300 283.333C300 274.128 307.462 266.667 316.667 266.667H516.667C525.872 266.667 533.333 274.128 533.333 283.333C533.333 292.538 525.872 300 516.667 300H316.667C307.462 300 300 292.538 300 283.333Z" fill="white"/>
<path fill-rule="evenodd" clip-rule="evenodd" d="M300 416.667C300 407.462 307.462 400 316.667 400H516.667C525.872 400 533.333 407.462 533.333 416.667C533.333 425.872 525.872 433.333 516.667 433.333H316.667C307.462 433.333 300 425.872 300 416.667Z" fill="white"/>
<path fill-rule="evenodd" clip-rule="evenodd" d="M300 483.333C300 474.128 307.462 466.667 316.667 466.667H516.667C525.872 466.667 533.333 474.128 533.333 483.333C533.333 492.538 525.872 500 516.667 500H316.667C307.462 500 300 492.538 300 483.333Z" fill="white"/>
<path fill-rule="evenodd" clip-rule="evenodd" d="M166.667 433.333V483.333H216.667V433.333H166.667ZM150 400H233.333C242.538 400 250 407.462 250 416.667V500C250 509.205 242.538 516.667 233.333 516.667H150C140.795 516.667 133.333 509.205 133.333 500V416.667C133.333 407.462 140.795 400 150 400Z" fill="white"/>
<path fill-rule="evenodd" clip-rule="evenodd" d="M261.785 204.882C268.293 211.39 268.293 221.943 261.785 228.452L183.333 306.903L138.215 261.785C131.706 255.277 131.706 244.723 138.215 238.215C144.724 231.707 155.276 231.707 161.785 238.215L183.333 259.763L238.215 204.882C244.723 198.373 255.277 198.373 261.785 204.882Z" fill="white"/>
<path fill-rule="evenodd" clip-rule="evenodd" d="M700 400H666.667V655.555L683.333 677.778L700 655.555V400ZM733.333 666.667L683.333 733.333L633.333 666.667V366.667H733.333V666.667Z" fill="white"/>
<path fill-rule="evenodd" clip-rule="evenodd" d="M700 283.333H666.667V316.667H700V283.333ZM666.667 250H700C718.41 250 733.333 264.923 733.333 283.333V350H633.333V283.333C633.333 264.923 648.257 250 666.667 250Z" fill="white"/>
</svg>
