<svg width="800" height="800" viewBox="0 0 800 800" fill="none" xmlns="http://www.w3.org/2000/svg">
<g clip-path="url(#clip0_151_16)">
<path d="M163.825 690.05C148.125 722.7 138.2 744.475 50.775 747.65C53.275 663.3 69.375 654.25 101.55 638.2C115.05 631.45 131.875 623.075 150.075 609.1L119.625 570.225C105.25 581.275 92.025 587.075 79.25 593.425C25.625 620.175 0.349999 646.5 0.349999 772.05L0.774999 797.6L25.35 797.05C157.875 797.05 182.65 767.1 207.475 715.55C212.9 704.25 215.925 696.6 225.1 681.375L188.025 647.7C176.925 662.875 169.975 677.275 163.825 690V690.05ZM550.75 147.4C495.45 147.4 450.475 192.375 450.475 247.65C450.475 302.925 495.475 347.925 550.75 347.925C606.025 347.925 651.025 302.925 651.025 247.65C651.025 192.375 606.025 147.4 550.75 147.4ZM550.75 297.725C523.15 297.725 500.675 275.25 500.675 247.675C500.675 220.1 523.125 197.625 550.75 197.625C578.375 197.625 600.825 220.1 600.825 247.675C600.825 275.275 578.375 297.725 550.75 297.725ZM799.825 22.9002C799.075 10.4252 789.175 0.425214 776.7 -0.499786C776.7 -0.499786 636.8 -10.6998 502.2 39.5752C453.025 57.9502 412.55 87.0252 374.775 131.1C343.275 167.85 311.975 234.25 284.35 289.4C273.675 310.675 263.475 331.05 254.825 346.6H115.75C108.6 346.6 101.8 349.675 97.05 355L5.4 454.325C-0.45 460.95 -2.4 470.15 0.299999 478.55C3 486.95 9.925 493.35 18.525 495.3L167.7 529.4C177.875 541.95 194.8 560.725 221.9 590.8L278.425 653.45L308.85 782.15C310.85 790.625 317.125 797.475 325.425 800.15C327.95 800.95 330.575 801.375 333.15 801.375C339.05 801.375 344.825 799.3 349.425 795.35L442.05 703.2C447.575 698.475 450.775 691.525 450.775 684.225V555.225C463.225 547.5 485.3 535.575 506.075 523.95C562.675 492.325 647.2 452.925 682.225 421.775C731.575 377.925 749.525 345.775 767.175 298.25C809.125 185.225 800.25 29.4752 799.825 22.9002ZM720.325 280.825C704.925 322.3 690.975 347.1 649.025 384.375C618.05 411.9 533.3 451.425 481.675 480.3C443.15 501.825 420.075 514.4 409.95 522.675C404.125 527.4 400.75 534.525 400.75 542.025V672.7L348 730.675L325.525 635.675C324.55 631.6 322.575 627.825 319.75 624.7C273.775 573.75 204.325 496.725 199 490.6C195.525 486.375 190.7 483.375 185.275 482.125L70.75 455.925L126.925 396.55H269.15C277.85 396.55 285.925 392.025 290.45 384.65C301.45 366.75 314.2 341.25 329 311.775C354.05 261.825 385.2 195.725 412.7 163.625C445.2 125.725 478.175 101.9 519.65 86.4002C611.925 51.9252 707.125 48.3002 750.65 48.6252C751.45 94.7252 749.725 201.6 720.3 280.85L720.325 280.825Z" fill="white"/>
</g>
<defs>
<clipPath id="clip0_151_16">
<rect width="800" height="800" fill="white"/>
</clipPath>
</defs>
</svg>
