<svg width="800" height="800" viewBox="0 0 800 800" fill="none" xmlns="http://www.w3.org/2000/svg">
<path d="M335 84.3345L134.334 215.335C70.0007 257.335 70.0007 351.333 134.334 393.333L335 524.333C371 548 430.333 548 466.333 524.333L666 393.333C730 351.333 730 257.668 666 215.668L466.333 84.6679C430.333 60.6679 371 60.6679 335 84.3345Z" stroke="white" stroke-width="50" stroke-linecap="round" stroke-linejoin="round"/>
<path d="M187.667 436L187.333 592.333C187.333 634.667 220 680 260 693.333L366.333 728.667C384.667 734.667 415 734.667 433.667 728.667L540 693.333C580 680 612.667 634.667 612.667 592.333V437.667" stroke="white" stroke-width="50" stroke-linecap="round" stroke-linejoin="round"/>
<path d="M713.333 500V300" stroke="white" stroke-width="50" stroke-linecap="round" stroke-linejoin="round"/>
</svg>
